# Blender 3.1.0
# www.blender.org
mtllib cursor.mtl
o Plane
v -0.500000 -0.500000 0.000000
v 0.500000 -0.500000 0.000000
v -0.500000 0.500000 0.000000
v 0.500000 0.500000 0.000000
v -0.450000 0.450000 0.000000
v -0.450000 -0.450000 0.000000
v 0.450000 0.450000 0.000000
v 0.450000 -0.450000 0.000000
v -0.045000 0.045000 0.000000
v 0.045000 0.045000 0.000000
v -0.450000 0.500000 0.000000
v -0.045000 -0.045000 0.000000
v 0.045000 -0.045000 0.000000
v 0.000000 0.000000 0.054791
v -0.450000 -0.500000 0.000000
v -0.456299 -0.475000 0.029000
v -0.500000 -0.450000 0.000000
v -0.475000 -0.456299 0.029000
v -0.475000 -0.475000 0.115335
v -0.456299 0.475000 0.029000
v -0.500000 0.450000 0.000000
v -0.475000 0.456299 0.029000
v -0.475000 0.475000 0.115335
v 0.450000 -0.500000 0.000000
v 0.456299 -0.475000 0.029000
v 0.500000 -0.450000 0.000000
v 0.475000 -0.456299 0.029000
v 0.475000 -0.475000 0.115335
v 0.450000 0.500000 0.000000
v 0.456299 0.475000 0.029000
v 0.500000 0.450000 0.000000
v 0.475000 0.456299 0.029000
v 0.475000 0.475000 0.115335
vn 0.9773 0.0007 0.2117
vn -0.0000 0.7574 0.6529
vn 0.0007 -0.9773 0.2117
vn -0.7574 -0.0000 0.6529
vn 0.9773 -0.0007 0.2117
vn -0.0000 0.7728 0.6347
vn 0.0007 0.9773 0.2117
vn -0.0000 0.9773 0.2118
vn 0.9773 -0.0000 0.2118
vn -0.0007 0.9773 0.2117
vn -0.9773 -0.0000 0.2118
vn -0.0000 -0.7574 0.6529
vn -0.0000 -0.9773 0.2118
vn -0.0007 -0.9773 0.2117
vn -0.9773 0.0007 0.2117
vn -0.9773 -0.0007 0.2117
vn 0.7574 -0.0000 0.6529
vn -0.7728 -0.0000 0.6347
vn 0.7728 -0.0000 0.6347
vn -0.0000 -0.0000 -1.0000
vn -0.0000 -0.7728 0.6347
vt 0.000000 0.000000
vt 1.000000 0.000000
vt 0.000000 1.000000
vt 1.000000 1.000000
vt 0.050000 0.950000
vt 0.050000 0.050000
vt 0.950000 0.950000
vt 0.950000 0.050000
vt 0.455000 0.545000
vt 0.545000 0.545000
vt 0.050000 1.000000
vt 0.455000 0.455000
vt 0.545000 0.455000
vt 0.500000 0.500000
vt 0.050000 0.000000
vt 0.043701 0.025000
vt 0.000000 0.050000
vt 0.025000 0.043701
vt 0.025000 0.025000
vt 0.043701 0.975000
vt 0.000000 0.950000
vt 0.025000 0.956299
vt 0.025000 0.975000
vt 0.950000 0.000000
vt 0.956299 0.025000
vt 1.000000 0.050000
vt 0.975000 0.043701
vt 0.975000 0.025000
vt 0.950000 1.000000
vt 0.956299 0.975000
vt 1.000000 0.950000
vt 0.975000 0.956299
vt 0.975000 0.975000
s 0
f 15/15/1 16/16/1 19/19/1
f 6/6/2 16/16/2 25/25/2 8/8/2
f 21/21/3 22/22/3 23/23/3
f 21/21/4 17/17/4 18/18/4 22/22/4
f 11/11/5 23/23/5 20/20/5
f 20/20/2 30/30/2 29/29/2 11/11/2
f 10/10/6 9/9/6 14/14/6
f 27/27/7 8/8/7 28/28/7
f 11/11/8 3/3/8 23/23/8
f 2/2/9 26/26/9 28/28/9
f 26/26/10 27/27/10 28/28/10
f 7/7/4 8/8/4 27/27/4 32/32/4
f 1/1/11 19/19/11 17/17/11
f 5/5/12 7/7/12 30/30/12 20/20/12
f 18/18/10 19/19/10 6/6/10
f 17/17/7 19/19/7 18/18/7
f 15/15/13 19/19/13 1/1/13
f 16/16/5 6/6/5 19/19/5
f 20/20/1 23/23/1 5/5/1
f 15/15/12 24/24/12 25/25/12 16/16/12
f 31/31/14 33/33/14 32/32/14
f 3/3/11 21/21/11 23/23/11
f 24/24/15 28/28/15 25/25/15
f 24/24/13 2/2/13 28/28/13
f 25/25/16 28/28/16 8/8/16
f 22/22/14 5/5/14 23/23/14
f 4/4/9 33/33/9 31/31/9
f 31/31/17 32/32/17 27/27/17 26/26/17
f 14/14/18 9/9/18 12/12/18
f 32/32/3 33/33/3 7/7/3
f 5/5/17 22/22/17 18/18/17 6/6/17
f 13/13/19 10/10/19 14/14/19
f 21/21/20 5/5/20 6/6/20 17/17/20
f 29/29/16 30/30/16 33/33/16
f 29/29/8 33/33/8 4/4/8
f 30/30/15 7/7/15 33/33/15
f 13/13/20 12/12/20 9/9/20 10/10/20
f 6/6/20 8/8/20 24/24/20 15/15/20
f 7/7/20 31/31/20 26/26/20 8/8/20
f 11/11/20 29/29/20 7/7/20 5/5/20
f 2/2/20 24/24/20 8/8/20 26/26/20
f 17/17/20 6/6/20 15/15/20 1/1/20
f 11/11/20 5/5/20 21/21/20 3/3/20
f 4/4/20 31/31/20 7/7/20 29/29/20
f 13/13/21 14/14/21 12/12/21
